<svg width="140" height="40" viewBox="0 0 140 40" xmlns="http://www.w3.org/2000/svg">
  <!-- Texto GEO con estilo moderno -->
  <text x="8" y="26" font-family="Inter, Arial, sans-serif" font-weight="800" font-size="20" fill="#003849">GE</text>
  
  <!-- O con gráfico integrado -->
  <g transform="translate(42, 8)">
    <circle cx="12" cy="12" r="11" fill="#003849"/>
    <circle cx="12" cy="12" r="8" fill="#FBE07B"/>
    <!-- Ondas estadísticas -->
    <path d="M6,14 Q9,10 12,14 T18,14" fill="none" stroke="#003849" stroke-width="1.5"/>
    <path d="M6,12 Q9,8 12,12 T18,12" fill="none" stroke="#9395D3" stroke-width="1"/>
    <path d="M6,10 Q9,6 12,10 T18,10" fill="none" stroke="#88D18A" stroke-width="1"/>
  </g>
  
  <!-- Texto STATS con corchetes -->
  <text x="8" y="38" font-family="Inter, Arial, sans-serif" font-weight="400" font-size="10" fill="#9395D3">[</text>
  <text x="14" y="38" font-family="Inter, Arial, sans-serif" font-weight="600" font-size="10" fill="#331832" letter-spacing="1px">STATS</text>
  <text x="52" y="38" font-family="Inter, Arial, sans-serif" font-weight="400" font-size="10" fill="#9395D3">]</text>
  
  <!-- Elementos decorativos de datos -->
  <circle cx="75" cy="12" r="2" fill="#88D18A"/>
  <circle cx="85" cy="8" r="1.5" fill="#D74833"/>
  <circle cx="95" cy="16" r="2.5" fill="#B8336A"/>
  <circle cx="105" cy="10" r="1.8" fill="#9395D3"/>
  
  <!-- Líneas de conexión de datos -->
  <path d="M75,12 L85,8 L95,16 L105,10" stroke="#9395D3" stroke-width="0.8" opacity="0.6" fill="none"/>
  
  <!-- Texto descriptivo -->
  <text x="70" y="26" font-family="Inter, Arial, sans-serif" font-weight="300" font-size="8" fill="#6B7280">Cartografía</text>
  <text x="70" y="34" font-family="Inter, Arial, sans-serif" font-weight="300" font-size="8" fill="#6B7280">Social</text>
</svg> 